<svg width="674" height="734" viewBox="0 0 674 734" fill="none" xmlns="http://www.w3.org/2000/svg">
<circle cx="479" cy="195" r="195" fill="#E9F3FF"/>
<g clip-path="url(#clip0_2_47)">
<path d="M674 440C674.084 530.413 641.641 617.84 582.599 686.312C523.556 754.785 441.852 799.734 352.41 812.95H250.3C250.14 813.09 244.48 813.36 244.48 813.36C243.53 813.23 242.57 813.09 241.62 812.95C234.35 811.88 227.147 810.603 220.01 809.12C192.065 803.335 164.877 794.36 138.98 782.37C138.71 782.25 138.45 782.12 138.18 782C123.749 775.302 109.763 767.683 96.31 759.19C95.97 758.98 95.64 758.77 95.31 758.56C94.74 758.2 94.18 757.85 93.62 757.48C93.44 757.37 93.26 757.26 93.08 757.14C81.0526 749.393 69.4772 740.966 58.41 731.9C57.87 731.47 57.3301 731.02 56.79 730.58C54.62 728.78 52.47 726.96 50.34 725.12C50.32 725.11 50.31 725.09 50.29 725.08C39.4059 715.647 29.066 705.604 19.32 695C19.29 694.96 19.25 694.93 19.22 694.89C-23.5924 648.321 -53.9721 591.71 -69.11 530.29C-69.23 529.85 -69.33 529.42 -69.44 528.98C-76.4741 499.843 -80.019 469.974 -80 440C-80 231.79 88.79 63 297 63C505.21 63 674 231.79 674 440Z" fill="#3F3D56"/>
<path opacity="0.8" d="M331.853 495.616L364.824 457.018L397.795 418.419L416.407 396.63C417.437 395.424 415.848 393.543 414.818 394.749L381.847 433.347L348.877 471.946L330.264 493.735C329.234 494.941 330.824 496.822 331.853 495.616Z" fill="url(#paint0_linear_2_47)"/>
<path d="M340.91 399.41H306.81V812.95H340.91V399.41Z" fill="#2F2E41"/>
<path d="M329.95 551.23L329.88 563.61L329.05 713.87L328.95 731.78L328.73 772.14L328.51 812.95H326.31L326.53 772.14L326.74 734.44L326.85 713.5L327.68 563.64L327.75 551.22L329.95 551.23Z" fill="#2489FF"/>
<path d="M347.031 404.91H300.827C300.156 397.672 301.825 390.382 306.121 383.034L307.427 374.107H339.33L340.835 382.921C345.305 388.877 347.037 396.397 347.031 404.91Z" fill="#2F2E41"/>
<path d="M340.318 375.207H307.396C307.064 375.207 306.735 375.132 306.436 374.987C306.137 374.842 305.874 374.63 305.668 374.369C305.463 374.108 305.318 373.804 305.247 373.479C305.176 373.154 305.179 372.817 305.257 372.494L310.801 349.392C310.917 348.911 311.19 348.483 311.579 348.177C311.967 347.871 312.446 347.705 312.941 347.705H334.774C335.268 347.705 335.748 347.871 336.136 348.177C336.524 348.483 336.798 348.911 336.913 349.392L342.458 372.494C342.535 372.817 342.538 373.154 342.467 373.479C342.396 373.804 342.252 374.108 342.046 374.369C341.84 374.63 341.578 374.842 341.278 374.987C340.979 375.132 340.651 375.207 340.318 375.207Z" fill="#2F2E41"/>
<path d="M323.86 336.15C320.796 336.154 317.859 337.373 315.693 339.54C313.528 341.708 312.311 344.646 312.31 347.71V359.26H335.41V347.71C335.409 344.646 334.192 341.708 332.027 339.54C329.861 337.373 326.924 336.154 323.86 336.15Z" fill="#2F2E41"/>
<path d="M311.051 685.109L232.765 786.714L243.592 789.213L304.388 710.927H311.051V685.109Z" fill="#2F2E41"/>
<path d="M339.831 685.109L418.117 786.714L407.29 789.213L346.494 710.927H339.831V685.109Z" fill="#2F2E41"/>
<path d="M569.38 308.25V700.65C545.053 726.068 517.303 747.972 486.93 765.73V308.25H569.38Z" fill="#2F2E41"/>
<path d="M608.521 358.224H554.387V412.358H608.521V358.224Z" fill="#2F2E41"/>
<path d="M534.399 177.5H521.906V319.081H534.399V177.5Z" fill="#2F2E41"/>
<g opacity="0.4">
<path opacity="0.4" d="M493.93 308.25H486.93V765.73C489.282 764.356 491.615 762.954 493.93 761.525V308.25Z" fill="#E6E6E6"/>
<path opacity="0.4" d="M528.906 177.5H521.906V308.25H528.906V177.5Z" fill="#E6E6E6"/>
</g>
<path d="M548.14 372.798H503.168V397.783H548.14V372.798Z" fill="#2489FF"/>
<path d="M66.9333 374.039C103.49 374.039 133.126 344.404 133.126 307.847C133.126 271.29 103.49 241.654 66.9333 241.654C30.3761 241.654 0.740662 271.29 0.740662 307.847C0.740662 344.404 30.3761 374.039 66.9333 374.039Z" fill="#E6E6E6"/>
<path d="M60.4225 269.867C64.6176 269.867 68.0184 266.467 68.0184 262.271C68.0184 258.076 64.6176 254.676 60.4225 254.676C56.2274 254.676 52.8267 258.076 52.8267 262.271C52.8267 266.467 56.2274 269.867 60.4225 269.867Z" fill="#CBCBCB"/>
<path d="M73.444 345.826C77.6391 345.826 81.0399 342.425 81.0399 338.23C81.0399 334.035 77.6391 330.634 73.444 330.634C69.2489 330.634 65.8481 334.035 65.8481 338.23C65.8481 342.425 69.2489 345.826 73.444 345.826Z" fill="#CBCBCB"/>
<path d="M102.742 301.336C105.739 301.336 108.168 298.907 108.168 295.91C108.168 292.914 105.739 290.485 102.742 290.485C99.7459 290.485 97.3168 292.914 97.3168 295.91C97.3168 298.907 99.7459 301.336 102.742 301.336Z" fill="#CBCBCB"/>
<path d="M40.8902 330.634C50.479 330.634 58.2522 322.861 58.2522 313.272C58.2522 303.684 50.479 295.91 40.8902 295.91C31.3015 295.91 23.5283 303.684 23.5283 313.272C23.5283 322.861 31.3015 330.634 40.8902 330.634Z" fill="#CBCBCB"/>
<path d="M172.015 415.789C173.99 415.789 175.591 414.188 175.591 412.213C175.591 410.238 173.99 408.636 172.015 408.636C170.04 408.636 168.438 410.238 168.438 412.213C168.438 414.188 170.04 415.789 172.015 415.789Z" fill="#2489FF"/>
<path d="M203.012 464.093L201.227 465.866L199.454 464.081L198.264 465.263L200.037 467.048L198.252 468.821L199.434 470.011L201.219 468.238L202.992 470.023L204.182 468.841L202.409 467.056L204.194 465.283L203.012 464.093Z" fill="#E6E6E6"/>
<path d="M217.318 360.375L215.533 362.148L213.76 360.363L212.57 361.545L214.343 363.33L212.558 365.103L213.74 366.293L215.525 364.52L217.298 366.305L218.488 365.123L216.715 363.338L218.5 361.565L217.318 360.375Z" fill="#E6E6E6"/>
<path d="M262.279 163.556C258.417 166.129 254.464 160.005 258.401 157.546C262.262 154.973 266.215 161.097 262.279 163.556Z" fill="#E6E6E6"/>
<path d="M38.557 429.728L36.1 429.189L36.638 426.731L35 426.372L34.461 428.83L32.004 428.292L31.645 429.93L34.102 430.469L33.564 432.926L35.202 433.285L35.741 430.827L38.198 431.366L38.557 429.728Z" fill="#E6E6E6"/>
<path d="M414.557 134.728L412.1 134.189L412.638 131.731L411 131.372L410.461 133.83L408.004 133.292L407.645 134.93L410.102 135.469L409.564 137.926L411.202 138.285L411.741 135.827L414.198 136.366L414.557 134.728Z" fill="#E6E6E6"/>
<path d="M606.557 293.728L604.1 293.189L604.638 290.731L603 290.372L602.461 292.83L600.004 292.292L599.645 293.93L602.102 294.469L601.564 296.926L603.202 297.285L603.741 294.827L606.198 295.366L606.557 293.728Z" fill="#E6E6E6"/>
<path d="M142.46 173.506L140.003 172.967L140.541 170.51L138.903 170.151L138.364 172.608L135.906 172.07L135.547 173.708L138.005 174.247L137.467 176.705L139.105 177.063L139.644 174.606L142.101 175.144L142.46 173.506Z" fill="#E6E6E6"/>
<path d="M375.34 255.127C377.315 255.127 378.916 253.526 378.916 251.551C378.916 249.576 377.315 247.974 375.34 247.974C373.364 247.974 371.763 249.576 371.763 251.551C371.763 253.526 373.364 255.127 375.34 255.127Z" fill="#2489FF"/>
<path d="M348.557 305.728L346.1 305.189L346.638 302.731L345 302.372L344.461 304.83L342.004 304.292L341.645 305.93L344.102 306.469L343.564 308.926L345.202 309.285L345.741 306.827L348.198 307.366L348.557 305.728Z" fill="#E6E6E6"/>
<path d="M443.46 261.506L441.003 260.967L441.541 258.51L439.903 258.151L439.364 260.608L436.906 260.07L436.547 261.708L439.005 262.247L438.467 264.705L440.105 265.063L440.644 262.606L443.101 263.144L443.46 261.506Z" fill="#E6E6E6"/>
<path opacity="0.8" d="M277.853 281.616L310.824 243.018L343.795 204.419L362.407 182.63C363.437 181.424 361.848 179.543 360.818 180.749L327.847 219.347L294.877 257.946L276.264 279.735C275.234 280.941 276.824 282.822 277.853 281.616Z" fill="url(#paint1_linear_2_47)"/>
<path d="M311.494 709.969H305.494V811.992H311.494V709.969Z" fill="#E6E6E6"/>
<path d="M325.54 335.6C323.089 336.263 320.924 337.714 319.379 339.729C317.834 341.744 316.995 344.211 316.99 346.75V346.85C316.623 346.96 316.291 347.163 316.026 347.44C315.761 347.717 315.573 348.058 315.48 348.43L309.94 371.54C309.865 371.852 309.86 372.176 309.925 372.49C309.99 372.804 310.123 373.099 310.315 373.356C310.507 373.613 310.752 373.824 311.035 373.975C311.318 374.126 311.63 374.213 311.95 374.23L311.91 374.5L311.76 375.5L309.5 382.5C305.21 389.84 304.84 396.71 305.51 403.95H311.49V684.46L233.45 785.76L239.19 787.08L238.28 788.26L227.45 785.76L305.49 684.46V403.95L300.5 403.5C299.83 396.26 301.21 389.84 305.5 382.5L305.76 375.5L305.91 374.5L305.95 374.23C305.63 374.213 305.318 374.126 305.035 373.975C304.752 373.824 304.507 373.613 304.315 373.356C304.123 373.099 303.99 372.804 303.925 372.49C303.86 372.176 303.865 371.852 303.94 371.54L309.48 348.43C309.573 348.058 309.761 347.717 310.026 347.44C310.291 347.163 310.623 346.96 310.99 346.85V346.75C310.991 343.686 312.208 340.748 314.373 338.58C316.539 336.413 319.476 335.194 322.54 335.19C323.554 335.193 324.563 335.331 325.54 335.6Z" fill="#E6E6E6"/>
<path d="M351.177 709.969H345.594V710.506L405.974 788.255L411.062 787.081L351.177 709.969Z" fill="#E6E6E6"/>
<path d="M329.05 713.87C328.35 713.75 327.61 713.63 326.85 713.5C322.38 712.78 316.99 711.96 310.81 711.11C310.39 711.05 309.96 710.99 309.52 710.93C304.42 710.24 298.81 709.54 292.76 708.85C259.59 705.12 213.26 702.13 165.98 706.24C167.15 701.54 168.23 696.84 169.25 692.16L123.97 699.17L172.83 674.32C177.433 648.791 180.598 623.024 182.31 597.14L157.85 600.92L182.86 588.2C184.65 556.17 183.81 534.85 183.81 534.85C183.81 534.85 102 577.38 36.58 642.38C34.18 633.92 31.55 625.57 28.75 617.37L-6.39001 646.77L22.58 600.25C13.3307 576.014 2.7205 552.32 -9.20001 529.28L-28.18 545.16L-13.34 521.34C-28.36 492.99 -40.1 475.17 -40.1 475.17C-40.1 475.17 -53.49 497.11 -69.44 530.98C-54.3976 592.947 -23.8552 650.074 19.32 697C29.0801 707.62 39.4369 717.677 50.34 727.12C52.4699 728.96 54.6199 730.78 56.79 732.58C68.3481 742.147 80.4662 751.016 93.08 759.14C93.82 759.62 94.56 760.09 95.31 760.56C133.489 784.792 175.736 801.921 220.01 811.12C223.12 811.77 226.26 812.38 229.41 812.95C230.18 813.09 230.95 813.23 231.72 813.36H244.48C244.48 813.36 250.14 813.09 250.3 812.95C266.15 799.08 280.52 785.06 292.91 772.14C295.73 769.21 298.44 766.33 301.05 763.53L279.67 751.06L307.11 756.94C308.37 755.55 309.61 754.18 310.81 752.84C316.97 745.96 322.31 739.73 326.74 734.44C327.5 733.52 328.24 732.64 328.95 731.78C337.02 722.04 341.46 716.1 341.46 716.1C341.46 716.1 337 715.19 329.05 713.87Z" fill="#2F2E41"/>
<path d="M305.49 403.95H299.51C298.84 396.71 300.51 389.42 304.8 382.08L305.76 375.5L305.91 374.5H311.91L311.76 375.5L310.8 382.08C306.51 389.42 304.84 396.71 305.51 403.95H311.49" fill="#2489FF"/>
<path d="M311.49 490.5H305.49V563.5H311.49V490.5Z" fill="#2489FF"/>
<path d="M526.5 188.5C532.575 188.5 537.5 183.575 537.5 177.5C537.5 171.425 532.575 166.5 526.5 166.5C520.425 166.5 515.5 171.425 515.5 177.5C515.5 183.575 520.425 188.5 526.5 188.5Z" fill="#2489FF"/>
</g>
<defs>
<linearGradient id="paint0_linear_2_47" x1="329.931" y1="445.182" x2="416.741" y2="445.182" gradientUnits="userSpaceOnUse">
<stop stop-color="white"/>
<stop offset="1" stop-color="white" stop-opacity="0.3"/>
</linearGradient>
<linearGradient id="paint1_linear_2_47" x1="50532.9" y1="24879.9" x2="58068.8" y2="24879.9" gradientUnits="userSpaceOnUse">
<stop stop-color="white"/>
<stop offset="1" stop-color="white" stop-opacity="0.3"/>
</linearGradient>
<clipPath id="clip0_2_47">
<rect width="754" height="750.36" fill="white" transform="translate(-80 63)"/>
</clipPath>
</defs>
</svg>
